<svg width="640" height="480" xmlns="http://www.w3.org/2000/svg">
 <!-- Created with SVG-edit - http://svg-edit.googlecode.com/ -->
 <g>
  <title>Layer 1</title>
  <ellipse fill="none" stroke="#000000" stroke-width="5" stroke-linejoin="null" stroke-linecap="null" cx="116" cy="160" id="svg_2" rx="62" ry="66"/>
  <ellipse fill="none" stroke="#000000" stroke-width="5" stroke-linejoin="null" stroke-linecap="null" cx="164" cy="119" id="svg_3" rx="18" ry="15"/>
  <ellipse fill="none" stroke="#000000" stroke-width="5" stroke-linejoin="null" stroke-linecap="null" cx="167" cy="120" id="svg_4" rx="32" ry="29"/>
  <ellipse fill="none" stroke="#000000" stroke-width="5" stroke-linejoin="null" stroke-linecap="null" cx="70" cy="125" id="svg_5" rx="40" ry="29"/>
  <ellipse fill="none" stroke="#000000" stroke-width="5" stroke-linejoin="null" stroke-linecap="null" cx="66" cy="125" id="svg_6" rx="17" ry="17"/>
  <ellipse fill="none" stroke="#000000" stroke-width="5" stroke-linejoin="null" stroke-linecap="null" cx="120.5" cy="187" id="svg_7" rx="28.5" ry="23"/>
  <path fill="none" stroke="#000000" stroke-width="5" stroke-linejoin="null" stroke-linecap="null" d="m79.954643,393.182861q31.165916,21.40271 62.259071,0m-55.504265,-42.274811c0,-3.306641 2.681358,-5.989746 5.989479,-5.989746c3.307983,0 5.989594,2.683105 5.989594,5.989746c0,3.308807 -2.68161,5.990356 -5.989594,5.990356c-3.308121,0 -5.989479,-2.681549 -5.989479,-5.990356m36.843117,0c0,-3.306641 2.681473,-5.989746 5.98941,-5.989746c3.308426,0 5.98996,2.683105 5.98996,5.989746c0,3.308807 -2.681534,5.990356 -5.98996,5.990356c-3.30793,0 -5.98941,-2.681549 -5.98941,-5.990356m-69.932568,17.19696l0,0c0,-31.755127 25.744091,-57.5 57.500568,-57.5c31.757088,0 57.501167,25.744873 57.501167,57.5c0,31.756409 -25.74408,57.5 -57.501167,57.5c-31.756477,0 -57.500568,-25.743591 -57.500568,-57.5zm0,0l0,0c0,-31.755127 25.744091,-57.5 57.500568,-57.5c31.757088,0 57.501167,25.744873 57.501167,57.5c0,31.756409 -25.74408,57.5 -57.501167,57.5c-31.756477,0 -57.500568,-25.743591 -57.500568,-57.5z" id="svg_9"/>
  <path fill="none" stroke="#000000" stroke-width="5" stroke-linejoin="null" stroke-linecap="null" d="m201.919281,308.134033q45.256348,31.08316 90.408264,0m-80.600174,-61.386566c0,-4.805954 3.893677,-8.699631 8.697067,-8.699631c4.805939,0 8.697067,3.893677 8.697067,8.699631c0,4.800827 -3.891129,8.694519 -8.697067,8.694519c-4.803391,0 -8.697067,-3.893692 -8.697067,-8.694519m53.502365,0c0,-4.805954 3.893677,-8.699631 8.697083,-8.699631c4.803345,0 8.697113,3.893677 8.697113,8.699631c0,4.800827 -3.893768,8.694519 -8.697113,8.694519c-4.803406,0 -8.697083,-3.893692 -8.697083,-8.694519m-101.554108,24.972534l0,0c0,-46.117691 37.384903,-83.500046 83.5,-83.500046c46.115143,0 83.5,37.382355 83.5,83.500046c0,46.117645 -37.384857,83.5 -83.5,83.5c-46.115097,0 -83.5,-37.382355 -83.5,-83.5zm0,0l0,0c0,-46.117691 37.384903,-83.500046 83.5,-83.500046c46.115143,0 83.5,37.382355 83.5,83.500046c0,46.117645 -37.384857,83.5 -83.5,83.5c-46.115097,0 -83.5,-37.382355 -83.5,-83.5z" id="svg_10"/>
  <path fill="none" stroke="#000000" stroke-width="5" stroke-linejoin="null" stroke-linecap="null" d="m352.60083,197.574768q58.268555,38.899429 116.394775,0m-103.764313,-76.8283c0,-6.010277 5.012817,-10.885307 11.195648,-10.885307c6.185181,0 11.197998,4.875031 11.197998,10.885307c0,6.013664 -5.012817,10.88546 -11.197998,10.88546c-6.182831,0 -11.195648,-4.871796 -11.195648,-10.88546m68.88031,0c0,-6.010277 5.008484,-10.885307 11.193542,-10.885307c6.187286,0 11.200104,4.875031 11.200104,10.885307c0,6.013664 -5.012817,10.88546 -11.200104,10.88546c-6.185059,0 -11.193542,-4.871796 -11.193542,-10.88546m-130.746613,31.252983l0,0c0,-57.711754 48.129089,-104.49884 107.504395,-104.49884c59.368622,0 107.497925,46.787086 107.497925,104.49884c0,57.715134 -48.129303,104.50116 -107.497925,104.50116c-59.375305,0 -107.504395,-46.786026 -107.504395,-104.50116zm0,0l0,0c0,-57.711754 48.129089,-104.49884 107.504395,-104.49884c59.368622,0 107.497925,46.787086 107.497925,104.49884c0,57.715134 -48.129303,104.50116 -107.497925,104.50116c-59.375305,0 -107.504395,-46.786026 -107.504395,-104.50116z" id="svg_11"/>
  <text fill="#000000" stroke="#000000" stroke-width="0" stroke-linejoin="null" stroke-linecap="null" x="491" y="406" id="svg_15" font-size="24" font-family="serif" text-anchor="middle" xml:space="preserve">My first SVG</text>
 </g>
</svg>